<?xml version="1.0" standalone="no"?>
<!DOCTYPE svg PUBLIC "-//W3C//DTD SVG 20010904//EN"
 "http://www.w3.org/TR/2001/REC-SVG-20010904/DTD/svg10.dtd">
<svg version="1.0" xmlns="http://www.w3.org/2000/svg"
 width="60px" height="60px" viewBox="0 0 60 60"
 preserveAspectRatio="xMidYMid meet">

<g transform="translate(0.000000,456.000000) scale(0.100000,-0.100000)"
fill="#000000" stroke="none">
<path d="M1716 4445 c-43 -7 -90 -18 -105 -24 -14 -5 -42 -13 -61 -16 -51 -10
-181 -55 -205 -71 -11 -8 -27 -14 -36 -14 -15 0 -177 -78 -244 -117 -125 -74
-235 -162 -371 -298 -83 -82 -164 -170 -180 -195 -16 -25 -43 -63 -60 -85 -69
-87 -173 -284 -279 -530 -23 -53 -63 -179 -71 -220 -4 -22 -13 -54 -21 -72
-20 -49 -17 -170 5 -197 17 -23 18 -21 41 98 13 67 46 189 73 271 50 149 153
385 169 385 10 0 119 -145 119 -157 0 -4 -19 -46 -41 -93 -159 -328 -194 -787
-93 -1209 87 -363 277 -711 541 -986 341 -357 1018 -536 1574 -415 290 63 523
195 753 428 187 190 262 285 366 471 96 170 152 330 187 531 27 157 24 555 -5
735 -55 340 -214 641 -515 977 -113 127 -272 247 -429 324 l-77 38 -11 56
c-22 115 -26 125 -43 128 -13 3 -25 -14 -48 -62 -17 -36 -35 -66 -40 -66 -5 0
-25 7 -44 14 -19 8 -83 25 -142 38 -144 30 -421 33 -558 5 -117 -24 -310 -75
-349 -93 -17 -7 -80 -34 -141 -60 -175 -74 -318 -161 -478 -291 -43 -35 -81
-63 -86 -63 -5 0 -48 -47 -97 -105 -72 -84 -94 -105 -116 -105 -30 0 -179 27
-185 34 -6 6 71 125 145 226 124 169 353 376 535 482 323 188 696 283 1042
264 306 -16 688 -146 954 -326 461 -309 765 -755 871 -1277 57 -279 38 -721
-46 -1063 -133 -544 -452 -1002 -879 -1266 -119 -74 -360 -184 -403 -184 -19
0 -5 -39 27 -73 24 -26 30 -28 86 -24 33 2 87 12 120 21 33 9 80 22 105 28
124 30 462 178 565 248 22 15 59 39 82 54 23 16 76 58 118 95 41 36 93 81 116
100 81 68 296 435 350 596 7 22 16 45 20 50 9 13 53 148 68 210 7 28 19 66 27
85 12 28 14 83 12 265 -3 211 -4 223 -13 145 l-10 -85 -90 3 c-49 1 -110 5
-134 8 -42 5 -43 7 -37 35 3 17 8 80 11 142 3 62 8 140 11 174 l6 63 129 0
129 0 0 232 c0 205 -2 239 -19 283 -11 27 -31 84 -46 125 -23 66 -97 224 -146
311 -9 16 -38 59 -65 95 -206 278 -488 537 -729 669 -38 21 -81 46 -95 55 -57
39 -281 127 -420 166 -83 23 -258 55 -410 75 -131 17 -594 20 -684 4z m1431
-281 c119 -59 239 -132 362 -222 44 -32 44 -32 15 -31 -88 1 -119 14 -215 91
-110 88 -199 150 -289 202 -103 60 -25 35 127 -40z m-842 -105 c85 -10 261
-52 273 -64 4 -3 -1 -18 -10 -33 -17 -27 -17 -27 -165 -32 -132 -4 -148 -7
-151 -23 -3 -14 24 -31 130 -81 l133 -64 15 -128 c20 -171 26 -172 135 -29 44
58 89 107 100 110 11 2 60 6 109 9 139 8 140 24 8 112 -102 66 -123 93 -34 44
226 -128 406 -306 594 -585 226 -337 299 -623 285 -1115 -7 -271 -50 -453
-157 -675 -90 -187 -204 -339 -405 -541 -249 -251 -495 -375 -835 -419 -464
-61 -962 70 -1299 339 -153 123 -351 389 -462 622 -93 193 -137 333 -175 548
-46 266 -28 622 44 844 23 71 28 81 39 66 16 -22 23 -18 134 74 l95 80 128
-14 c70 -8 132 -11 137 -8 21 13 3 36 -95 127 l-103 97 27 100 c31 113 37 121
205 249 172 130 352 225 570 299 261 90 499 119 730 91z m395 -75 c8 -47 20
-93 28 -101 9 -8 44 -33 79 -56 34 -22 63 -43 63 -47 0 -4 -33 -10 -72 -14
-80 -7 -74 -2 -157 -111 -51 -67 -56 -64 -65 48 -3 43 -9 83 -12 89 -4 6 -41
27 -83 47 l-76 36 90 5 90 5 45 92 c25 51 48 92 51 93 3 0 12 -39 19 -86z
m972 -182 c24 -21 77 -74 118 -117 41 -44 92 -99 114 -122 l40 -43 -100 0 -99
0 -62 88 c-34 48 -89 118 -123 155 -33 37 -60 70 -60 72 0 3 29 5 64 5 61 0
68 -2 108 -38z m-2931 -401 c-11 -38 -21 -77 -21 -88 1 -10 36 -49 80 -87 44
-39 78 -72 75 -74 -2 -2 -43 1 -90 7 -99 14 -97 14 -186 -65 -28 -25 -53 -43
-56 -41 -2 3 1 35 8 72 l11 66 -48 70 c-27 38 -55 79 -63 89 -12 18 -11 20 7
20 11 0 56 -7 99 -15 l78 -15 57 62 c31 35 57 67 58 72 0 5 3 7 6 3 4 -3 -3
-37 -15 -76z m3261 32 c54 -62 199 -347 214 -420 l6 -30 -112 -13 c-61 -6
-113 -10 -115 -8 -2 1 -10 28 -18 58 -26 92 -65 189 -127 313 l-59 117 98 0
c81 0 101 -3 113 -17z m263 -578 c14 -49 32 -161 49 -298 l6 -48 -128 3 -127
3 -6 85 c-3 47 -14 129 -24 183 -10 54 -16 100 -14 102 5 5 142 22 191 24 36
1 37 0 53 -54z m-37 -921 c59 -5 62 -7 62 -32 0 -22 -27 -147 -67 -310 -7 -27
-5 -27 -155 20 -63 20 -98 36 -98 45 0 7 12 66 26 131 14 64 27 127 30 138 4
23 19 24 202 8z m-143 -401 c44 -14 86 -27 93 -29 16 -5 13 -13 -35 -139 -35
-91 -107 -243 -123 -259 -8 -8 -204 96 -215 115 -3 4 5 30 19 56 21 42 95 227
110 276 7 22 23 19 151 -20z m-208 -439 c54 -31 100 -58 101 -60 12 -9 -169
-243 -237 -308 l-30 -29 -53 41 c-29 23 -66 52 -83 65 l-29 25 55 73 c31 41
79 113 109 162 29 48 57 87 61 87 4 0 52 -25 106 -56z m-301 -385 l75 -61 -41
-29 c-100 -73 -324 -199 -353 -199 -17 0 -70 55 -66 68 2 5 38 37 79 70 41 33
109 95 150 136 41 42 76 76 78 76 2 0 37 -27 78 -61z m-426 -294 c14 -15 20
-29 14 -33 -22 -19 -202 -80 -302 -102 -53 -12 -84 -8 -40 5 33 10 188 89 244
125 26 16 51 30 54 30 4 0 17 -11 30 -25z"/>
<path d="M1953 3164 c-43 -16 -103 -73 -103 -99 0 -25 -15 -17 -27 14 -15 42
-78 61 -136 40 l-42 -14 3 -245 c4 -357 16 -576 31 -594 11 -13 35 -16 116
-16 134 0 132 -2 117 138 -24 213 -3 403 43 410 48 7 102 -181 112 -383 8
-172 0 -165 182 -165 118 0 151 3 161 15 9 11 7 37 -9 122 -40 212 -46 438
-11 438 40 0 123 -241 161 -470 19 -112 4 -105 198 -105 140 0 171 3 181 16
11 12 6 36 -28 142 -23 70 -58 197 -78 282 -73 318 -96 372 -171 420 -61 39
-169 70 -242 70 -71 0 -144 -31 -182 -77 l-22 -28 -41 41 c-61 62 -130 77
-213 48z m143 -81 c14 -9 34 -34 46 -57 25 -50 47 -76 64 -76 7 0 29 25 49 55
46 73 83 95 161 95 77 0 188 -39 225 -79 31 -34 58 -112 94 -276 34 -154 82
-334 100 -380 l15 -35 -110 0 c-93 0 -110 2 -110 16 0 55 -83 356 -123 444
-61 135 -152 159 -199 53 -19 -42 -20 -60 -15 -177 3 -72 13 -167 21 -211 25
-133 30 -125 -73 -125 l-88 0 -7 83 c-16 188 -54 346 -98 410 -22 31 -67 57
-97 57 -11 0 -36 -13 -54 -30 -53 -46 -62 -93 -62 -322 l1 -198 -47 0 c-43 0
-47 2 -52 29 -3 15 -9 177 -13 360 l-7 331 21 0 c12 0 22 -6 22 -14 0 -7 9
-25 21 -40 16 -20 29 -26 60 -26 26 0 39 4 39 14 0 7 8 16 18 19 11 2 22 17
25 35 4 20 16 36 34 46 37 20 108 20 139 -1z"/>
<path d="M1178 3149 l-23 -5 3 -250 c4 -378 16 -610 31 -628 19 -22 232 -23
251 -1 9 11 10 73 1 287 -7 150 -15 341 -18 425 -3 83 -9 157 -13 163 -8 13
-189 20 -232 9z m166 -101 c6 -35 26 -552 26 -655 l0 -63 -59 0 -59 0 -6 93
c-3 50 -8 193 -11 317 -3 124 -8 251 -11 283 l-6 57 61 0 60 0 5 -32z"/>
<path d="M2120 2034 c-142 -28 -181 -83 -130 -184 19 -38 19 -39 0 -45 -20 -6
-130 -112 -130 -125 0 -5 -13 -11 -30 -15 -16 -3 -48 -15 -71 -26 -22 -11 -43
-18 -46 -15 -3 2 7 35 22 72 15 37 28 88 29 113 1 42 -1 46 -22 46 -21 0 -27
-10 -50 -80 -30 -90 -58 -143 -85 -159 -15 -9 -23 -6 -43 17 -31 36 -33 108
-3 177 23 54 22 83 -2 88 -24 4 -45 -21 -68 -83 -42 -112 -17 -216 62 -261 34
-19 36 -22 22 -34 -9 -8 -28 -37 -43 -64 -22 -44 -26 -64 -27 -141 0 -101 20
-171 63 -217 51 -55 129 -32 172 51 26 51 23 226 -6 368 -6 29 -3 33 35 52 50
26 51 26 51 -1 0 -33 36 -87 66 -98 37 -14 107 -12 129 4 16 12 23 11 49 -5
61 -37 152 -15 192 46 l17 26 18 -30 c23 -38 48 -51 95 -51 31 0 44 7 80 44
l42 44 38 -39 c47 -48 88 -58 139 -33 38 18 90 79 106 124 6 17 23 30 54 41
25 9 47 14 49 10 2 -3 7 -40 11 -81 8 -89 18 -112 48 -108 19 3 22 9 22 53 0
28 -3 75 -7 106 l-8 56 38 15 39 15 11 -57 c17 -81 48 -124 93 -128 26 -2 40
3 57 21 32 34 20 61 -24 54 -20 -4 -37 -1 -43 7 -16 20 -31 155 -22 203 16 84
-17 193 -58 193 -29 0 -32 -24 -14 -93 15 -55 15 -68 3 -97 -13 -32 -74 -69
-89 -55 -3 4 -11 42 -17 86 -12 85 -34 129 -63 129 -27 0 -31 -21 -15 -82 17
-66 18 -152 2 -166 -7 -5 -23 -13 -35 -16 -19 -6 -23 -4 -23 15 0 34 -41 108
-77 139 -18 16 -50 34 -71 41 -34 10 -44 8 -81 -11 -53 -26 -88 -96 -103 -203
-15 -114 -47 -163 -101 -155 -33 5 -50 80 -42 190 6 78 5 88 -12 97 -33 17
-45 -3 -59 -98 -20 -132 -64 -210 -120 -211 -43 0 -47 23 -14 91 20 42 30 80
30 110 0 40 -5 51 -41 90 -57 61 -85 118 -67 134 34 32 157 47 199 24 15 -7
24 -7 35 2 20 17 17 47 -7 59 -24 13 -111 21 -149 14z m545 -214 c54 -34 84
-119 65 -188 -11 -42 -68 -102 -96 -102 -21 0 -73 57 -91 98 -18 44 -2 133 34
180 28 37 44 39 88 12z m-595 -85 c31 -38 -18 -156 -81 -194 -48 -29 -99 -9
-99 39 0 52 107 168 156 170 6 0 17 -7 24 -15z m-387 -415 c2 -116 -1 -140
-16 -163 -11 -16 -25 -27 -35 -25 -26 5 -54 72 -59 143 -8 89 10 154 55 199
l36 38 9 -28 c5 -16 10 -90 10 -164z"/>
<path d="M1148 1889 c-33 -12 -90 -120 -108 -202 -11 -48 -10 -58 8 -100 40
-90 149 -120 265 -72 14 6 17 2 17 -27 0 -27 -6 -37 -31 -52 -48 -28 -98 -76
-140 -132 -79 -107 -72 -196 17 -235 59 -27 106 -19 150 25 42 42 74 144 74
240 0 39 4 76 8 81 4 6 24 18 45 27 20 10 37 24 37 32 0 23 -27 38 -59 31 -28
-6 -29 -5 -33 42 -3 26 -1 58 4 71 17 50 9 132 -18 181 -41 72 -76 95 -148 98
-34 1 -73 -2 -88 -8z m129 -69 c60 -36 86 -133 53 -194 -30 -57 -129 -83 -190
-51 -34 18 -45 50 -35 102 8 45 60 149 77 156 27 11 64 6 95 -13z m59 -472
c-3 -18 -8 -58 -11 -88 -8 -74 -42 -134 -78 -138 -34 -4 -77 22 -77 46 1 37
40 102 95 156 31 31 61 56 67 56 5 0 7 -15 4 -32z"/>
<path d="M75 2527 c-10 -25 0 -570 10 -574 7 -2 10 100 10 292 0 263 -4 324
-20 282z"/>
<path d="M77 1873 c-14 -14 -6 -130 14 -192 91 -291 151 -429 236 -540 82
-108 139 -185 162 -220 35 -53 339 -354 391 -387 25 -16 69 -47 98 -68 67 -48
171 -106 277 -151 61 -26 171 -68 200 -76 213 -57 264 -62 303 -30 28 25 28
31 -3 31 -14 0 -60 7 -101 16 -361 74 -672 243 -931 506 -181 182 -359 417
-437 574 -54 108 -126 324 -151 452 -15 71 -23 92 -35 92 -9 0 -20 -3 -23 -7z"/>
<path d="M2290 218 c-31 -6 -145 -7 -261 -4 -175 4 -206 3 -206 -10 0 -12 45
-14 294 -14 286 0 293 0 293 20 0 23 -26 25 -120 8z"/>
</g>
</svg>
